<svg xmlns="http://www.w3.org/2000/svg" width="64" height="64" version="1">
 <defs>
  <style id="current-color-scheme" type="text/css">
   .ColorScheme-Text { color:#1d344f; } .ColorScheme-Highlight { color:#5294e2; } .ColorScheme-Background { color:#e4e4e4; }
  </style>
 </defs>
 <path style="opacity:0.2" d="M 13,9 H 53 C 56,9 60,27 60,35 60,43 57,61 53,61 H 13 C 9,61 6,43 6,35 6,27 10,9 13,9 Z"/>
 <path style="fill:currentColor" class="ColorScheme-Highlight" d="M 13,8 H 53 C 56,8 60,26 60,34 60,42 57,60 53,60 H 13 C 9,60 6,42 6,34 6,26 10,8 13,8 Z"/>
 <rect style="fill:currentColor" class="ColorScheme-Highlight" width="18" height="6" x="24" y="2"/>
 <rect style="opacity:0.2" width="54" height="12" x="6" y="5" rx="3" ry="3"/>
 <rect style="fill:#ffffff;opacity:0.1" width="18" height="6" x="24" y="2"/>
 <rect style="fill:currentColor" class="ColorScheme-Highlight" width="54" height="12" x="6" y="4" rx="3" ry="3"/>
 <path style="opacity:0.45;fill:currentColor" class="ColorScheme-Text;fill-opacity:1" d="m 33,22 a 3,3 0 0 0 -3,3 v 24 a 3,3 0 0 0 3,3 3,3 0 0 0 3,-3 V 25 a 3,3 0 0 0 -3,-3 z m -11.117188,0.132812 a 3,3 0 0 0 -3.75,1.984375 C 18.132812,24.117187 16,30.83334 16,37.5 c 0,6.66666 2.179687,12.525391 2.179687,12.525391 a 3,3 0 0 0 3.845704,1.794921 3,3 0 0 0 1.794921,-3.845703 C 23.820312,47.974609 22,42.833328 22,37.5 22,32.166672 23.867187,25.882812 23.867187,25.882812 a 3,3 0 0 0 -1.984375,-3.75 z m 22.234375,0 a 3,3 0 0 0 -1.984375,3.75 c 0,0 1.867188,6.28386 1.867188,11.617188 0,5.333328 -1.820312,10.474609 -1.820313,10.474609 a 3,3 0 0 0 1.794922,3.845703 3,3 0 0 0 3.845703,-1.794921 C 47.820312,50.025391 50,44.16666 50,37.5 50,30.83334 47.867187,24.117188 47.867187,24.117187 a 3,3 0 0 0 -3.75,-1.984375 z"/>
 <path style="fill:#ffffff;opacity:0.2" d="M 9 4 C 7.338 4 6 5.338 6 7 L 6 8 C 6 6.338 7.338 5 9 5 L 57 5 C 58.662 5 60 6.338 60 8 L 60 7 C 60 5.338 58.662 4 57 4 L 9 4 z"/>
 <rect style="fill:#ffffff;opacity:0.1" width="54" height="12" x="6" y="4" rx="3" ry="3"/>
</svg>
