<svg xmlns="http://www.w3.org/2000/svg" width="22" height="22" version="1">
 <defs>
  <style id="current-color-scheme" type="text/css">
   .ColorScheme-Text { color:#1d344f; } .ColorScheme-Highlight { color:#5294e2; } .ColorScheme-Background { color:#e4e4e4; }
  </style>
 </defs>
 <rect style="opacity:0.2" width="20" height="12" x="1" y="8.5" rx="1" ry="1"/>
 <path style="fill:currentColor" class="ColorScheme-Highlight" d="M 1,16 C 1,16.554 1.446,17 2,17 H 20 C 20.554,17 21,16.554 21,16 V 5 C 21,4.446 20.554,4 20,4 H 11 C 9.5,4 9,2 7.5,2 H 2 C 1.446,2 1,2.446 1,3"/>
 <path style="opacity:0.25" d="M 1,16 C 1,16.554 1.446,17 2,17 H 20 C 20.554,17 21,16.554 21,16 V 5 C 21,4.446 20.554,4 20,4 H 11 C 9.5,4 9,2 7.5,2 H 2 C 1.446,2 1,2.446 1,3"/>
 <rect style="opacity:0.2" width="20" height="12" x="1" y="7.5" rx="1" ry="1"/>
 <rect style="fill:currentColor" class="ColorScheme-Background" width="16" height="8" x="3" y="6" rx="1" ry="1"/>
 <rect style="fill:currentColor" class="ColorScheme-Highlight" width="20" height="12" x="1" y="8" rx="1" ry="1"/>
 <path style="opacity:0.1;fill:#ffffff" d="M 2,2 C 1.446,2 1,2.446 1,3 V 3.5 C 1,2.946 1.446,2.5 2,2.5 H 7.5 C 9,2.5 9.5,4.5 11,4.5 H 20 C 20.554,4.5 21,4.946 21,5.5 V 5 C 21,4.446 20.554,4 20,4 H 11 C 9.5,4 9,2 7.5,2 Z"/>
 <path style="opacity:0.65;fill:currentColor" class="ColorScheme-Text" d="m 7.5712889,10 c -0.316572,0 -0.5712891,0.254717 -0.5712891,0.571289 v 2.371094 c 0,0.316571 0.1551081,0.572265 0.4716791,0.572265 0.316572,0 0.528321,-0.255693 0.528321,-0.572265 V 11.8465 L 9,12.803711 V 13.5 h 1 V 13.25 C 10,13.1115 10.1115,13 10.25,13 H 10.5 V 12 H 9.803711 L 8.8464999,11 H 9.942383 c 0.316572,0 0.572265,-0.211749 0.572265,-0.528321 C 10.514648,10.155108 10.258955,10 9.942383,10 Z m 4.4863281,0 c -0.316572,0 -0.572266,0.155108 -0.572266,0.471679 0,0.316572 0.255694,0.528321 0.572266,0.528321 H 13.1535 l -0.957211,1 H 11.5 v 1 h 0.25 c 0.1385,0 0.25,0.1115 0.25,0.25 v 0.25 h 1 V 12.803711 L 14,11.8465 v 1.095883 c 0,0.316571 0.211749,0.572265 0.52832,0.572265 0.316572,0 0.47168,-0.255694 0.47168,-0.572265 V 10.571289 C 15,10.254717 14.745283,10 14.428711,10 Z m 2.470703,4.485351 C 14.211749,14.485351 14,14.741045 14,15.057617 V 16.1535 L 13,15.196289 V 14.5 h -1 v 0.25 C 12,14.8885 11.8885,15 11.75,15 H 11.5 v 1 h 0.696289 L 13.1535,17 H 12.057617 C 11.785004,17 11.557915,17.157551 11.5,17.40332 V 17.5 h 5e-4 c -4.76e-4,0.0095 -0.001,0.01861 -0.001,0.02832 0,0.316571 0.241524,0.471679 0.558096,0.471679 h 2.371093 C 14.745283,18 15,17.745282 15,17.428711 v -2.371094 c 0,-0.316572 -0.155108,-0.572266 -0.47168,-0.572266 z M 9,14.500001 v 0.928711 c 0,0.316571 0.254717,0.571289 0.571289,0.571289 H 10.5 v -1 h -0.25 c -0.1385,0 -0.25,-0.1115 -0.25,-0.25 v -0.25 z"/>
</svg>
