<svg xmlns="http://www.w3.org/2000/svg" width="22" height="22" version="1">
 <defs>
  <style id="current-color-scheme" type="text/css">
   .ColorScheme-Text { color:#1d344f; } .ColorScheme-Highlight { color:#5294e2; } .ColorScheme-Background { color:#e4e4e4; }
  </style>
 </defs>
 <rect style="opacity:0.2" width="14" height="18" x="4" y="3.5" rx="1" ry="1"/>
 <rect style="fill:currentColor" class="ColorScheme-Highlight" width="14" height="18" x="4" y="3" rx="1" ry="1"/>
 <rect style="fill:currentColor" class="ColorScheme-Highlight" width="6" height="2" x="8" y="1"/>
 <rect style="opacity:0.2" width="18" height="4" x="2" y="2.5" rx="1" ry="1"/>
 <rect style="fill:#ffffff;opacity:0.1" width="6" height="2" x="8" y="1"/>
 <rect style="fill:currentColor" class="ColorScheme-Highlight" width="18" height="4" x="2" y="2" rx="1" ry="1"/>
 <path style="opacity:0.45;fill:currentColor" class="ColorScheme-Text;fill-opacity:1" d="m 7,9 a 1,1 0 0 0 -1,1 v 7 a 1,1 0 0 0 1,1 1,1 0 0 0 1,-1 V 10 A 1,1 0 0 0 7,9 Z m 4,0 a 1,1 0 0 0 -1,1 v 7 a 1,1 0 0 0 1,1 1,1 0 0 0 1,-1 V 10 A 1,1 0 0 0 11,9 Z m 4,0 a 1,1 0 0 0 -1,1 v 7 a 1,1 0 0 0 1,1 1,1 0 0 0 1,-1 V 10 A 1,1 0 0 0 15,9 Z"/>
 <path style="opacity:0.2;fill:#ffffff" d="M 3,2 C 2.446,2 2,2.446 2,3 v 0.5 c 0,-0.554 0.446,-1 1,-1 h 16 c 0.554,0 1,0.446 1,1 V 3 C 20,2.446 19.554,2 19,2 Z"/>
 <rect style="fill:#ffffff;opacity:0.1" width="18" height="4" x="2" y="2" rx="1" ry="1"/>
</svg>
