<svg xmlns="http://www.w3.org/2000/svg" width="22" height="22" version="1.1">
 <defs>
  <style id="current-color-scheme" type="text/css">
   .ColorScheme-Text { color:#1d344f; } .ColorScheme-Highlight { color:#5294e2; } .ColorScheme-Background { color:#e4e4e4; }
  </style>
 </defs>
 <rect style="opacity:0.2" width="20" height="18" x="1" y="2.5" rx="1" ry="1"/>
 <path style="fill:currentColor" class="ColorScheme-Highlight" d="M 2 2 C 1.446 2 1 2.45 1 3 L 1 3.9003906 L 1 4 L 1 19 C 1 19.554 1.446 20 2 20 L 20 20 C 20.554 20 21 19.554 21 19 L 21 4 L 21 3.9003906 L 21 3 C 21 2.45 20.554 2 20 2 L 2 2 z"/>
 <path style="opacity:0.65;fill:currentColor" class="ColorScheme-Text" d="M 2,2 C 1.446,2 1,2.45 1,3 V 4 H 21 V 3 C 21,2.45 20.554,2 20,2 Z"/>
 <path style="opacity:0.65;fill:currentColor" class="ColorScheme-Text" d="M 7,18 C 6.446,18 6,18.45 6,19 V 20 H 16 V 19 C 16,18.45 15.554,18 15,18 Z"/>
 <path style="opacity:0.1;fill:#ffffff" d="M 2,2 C 1.446,2 1,2.45 1,3 V 3.5 C 1,2.95 1.446,2.5 2,2.5 H 20 C 20.554,2.5 21,2.95 21,3.5 V 3 C 21,2.45 20.554,2 20,2 Z"/>
</svg>
