<svg xmlns="http://www.w3.org/2000/svg" width="48" height="48" version="1">
 <defs>
  <style id="current-color-scheme" type="text/css">
   .ColorScheme-Text { color:#1d344f; } .ColorScheme-Highlight { color:#5294e2; } .ColorScheme-Background { color:#e4e4e4; }
  </style>
 </defs>
 <path style="opacity:0.2" d="M 11,10 H 37 C 39,10 42,21 42,27.5 42,34 40,45 37,45 H 11 C 8,45 6,34 6,27.5 6,21 9,10 11,10 Z"/>
 <path style="fill:currentColor" class="ColorScheme-Highlight" d="M 11,9 H 37 C 39,9 42,20 42,26.5 42,33 40,44 37,44 H 11 C 8,44 6,33 6,26.5 6,20 9,9 11,9 Z"/>
 <rect style="fill:currentColor" class="ColorScheme-Highlight" width="12" height="4" x="18" y="4"/>
 <rect style="opacity:0.2" width="36" height="8" x="6" y="7" rx="2" ry="2"/>
 <rect style="fill:#ffffff;opacity:0.1" width="12" height="4" x="18" y="4"/>
 <rect style="fill:currentColor" class="ColorScheme-Highlight" width="36" height="8" x="6" y="6" rx="2" ry="2"/>
 <path style="opacity:0.45;fill:currentColor" class="ColorScheme-Text;fill-opacity:1" d="m 24,19 a 2,2 0 0 0 -2,2 v 16 a 2,2 0 0 0 2,2 2,2 0 0 0 2,-2 V 21 a 2,2 0 0 0 -2,-2 z m -7.515625,0.06055 a 2,2 0 0 0 -2.423828,1.455078 C 14.060547,20.515625 13,24.666671 13,29 c 0,4.333329 1.060547,8.484375 1.060547,8.484375 a 2,2 0 0 0 2.423828,1.455078 2,2 0 0 0 1.455078,-2.423828 C 17.939453,36.515625 17,32.666663 17,29 c 0,-3.666663 0.939453,-7.515625 0.939453,-7.515625 a 2,2 0 0 0 -1.455078,-2.423828 z m 15.03125,0 a 2,2 0 0 0 -1.455078,2.423828 c 0,0 0.939453,3.848962 0.939453,7.515625 0,3.666663 -0.939453,7.515625 -0.939453,7.515625 a 2,2 0 0 0 1.455078,2.423828 2,2 0 0 0 2.423828,-1.455078 C 33.939453,37.484375 35,33.333329 35,29 35,24.666671 33.939453,20.515625 33.939453,20.515625 a 2,2 0 0 0 -2.423828,-1.455078 z"/>
 <path style="fill:#ffffff;opacity:0.2" d="M 8 6 C 6.892 6 6 6.892 6 8 L 6 9 C 6 7.892 6.892 7 8 7 L 40 7 C 41.108 7 42 7.892 42 9 L 42 8 C 42 6.892 41.108 6 40 6 L 8 6 z"/>
 <rect style="fill:#ffffff;opacity:0.1" width="36" height="8" x="6" y="6" rx="2" ry="2"/>
</svg>
