<svg xmlns="http://www.w3.org/2000/svg" width="24" height="24" version="1.1">
 <defs>
  <style id="current-color-scheme" type="text/css">
   .ColorScheme-Text { color:#1d344f; } .ColorScheme-Highlight { color:#5294e2; } .ColorScheme-Background { color:#e4e4e4; }
  </style>
 </defs>
 <rect style="opacity:0.2" width="20" height="18" x="2" y="3.5" rx="1" ry="1"/>
 <path style="fill:currentColor" class="ColorScheme-Highlight" d="M 3 3 C 2.446 3 2 3.45 2 4 L 2 4.9003906 L 2 5 L 2 20 C 2 20.554 2.446 21 3 21 L 21 21 C 21.554 21 22 20.554 22 20 L 22 5 L 22 4.9003906 L 22 4 C 22 3.45 21.554 3 21 3 L 3 3 z"/>
 <path style="opacity:0.65;fill:currentColor" class="ColorScheme-Text" d="M 3,3 C 2.446,3 2,3.45 2,4 V 5 H 22 V 4 C 22,3.45 21.554,3 21,3 Z"/>
 <path style="opacity:0.65;fill:currentColor" class="ColorScheme-Text" d="M 8,19 C 7.446,19 7,19.45 7,20 V 21 H 17 V 20 C 17,19.45 16.554,19 16,19 Z"/>
 <path style="opacity:0.1;fill:#ffffff" d="M 3,3 C 2.446,3 2,3.45 2,4 V 4.5 C 2,3.95 2.446,3.5 3,3.5 H 21 C 21.554,3.5 22,3.95 22,4.5 V 4 C 22,3.45 21.554,3 21,3 Z"/>
</svg>
