<svg xmlns="http://www.w3.org/2000/svg" width="24" height="24" version="1">
 <defs>
  <style id="current-color-scheme" type="text/css">
   .ColorScheme-Text { color:#1d344f; } .ColorScheme-Highlight { color:#5294e2; } .ColorScheme-Background { color:#e4e4e4; }
  </style>
 </defs>
 <rect style="opacity:0.2" width="14" height="18" x="5" y="4.5" rx="1" ry="1"/>
 <rect style="fill:currentColor" class="ColorScheme-Highlight" width="14" height="18" x="5" y="4" rx="1" ry="1"/>
 <rect style="fill:currentColor" class="ColorScheme-Highlight" width="6" height="2" x="9" y="2"/>
 <rect style="opacity:0.2" width="18" height="4" x="3" y="3.5" rx="1" ry="1"/>
 <rect style="fill:#ffffff;opacity:0.1" width="6" height="2" x="9" y="2"/>
 <rect style="fill:currentColor" class="ColorScheme-Highlight" width="18" height="4" x="3" y="3" rx="1" ry="1"/>
 <path style="opacity:0.45;fill:currentColor" class="ColorScheme-Text;fill-opacity:1" d="m 8,10 a 1,1 0 0 0 -1,1 v 7 a 1,1 0 0 0 1,1 1,1 0 0 0 1,-1 V 11 A 1,1 0 0 0 8,10 Z m 4,0 a 1,1 0 0 0 -1,1 v 7 a 1,1 0 0 0 1,1 1,1 0 0 0 1,-1 v -7 a 1,1 0 0 0 -1,-1 z m 4,0 a 1,1 0 0 0 -1,1 v 7 a 1,1 0 0 0 1,1 1,1 0 0 0 1,-1 v -7 a 1,1 0 0 0 -1,-1 z"/>
 <path style="fill:#ffffff;opacity:0.2" d="M 4 3 C 3.446 3 3 3.446 3 4 L 3 4.5 C 3 3.946 3.446 3.5 4 3.5 L 20 3.5 C 20.554 3.5 21 3.946 21 4.5 L 21 4 C 21 3.446 20.554 3 20 3 L 4 3 z"/>
 <rect style="fill:#ffffff;opacity:0.1" width="18" height="4" x="3" y="3" rx="1" ry="1"/>
</svg>
