<svg xmlns="http://www.w3.org/2000/svg" width="64" height="64" version="1.1">
 <defs>
  <style id="current-color-scheme" type="text/css">
   .ColorScheme-Text { color:#1d344f; } .ColorScheme-Highlight { color:#5294e2; } .ColorScheme-Background { color:#e4e4e4; }
  </style>
 </defs>
 <rect style="opacity:0.2" width="56" height="52" x="4" y="7" rx="2.8" ry="2.8"/>
 <path style="fill:currentColor" class="ColorScheme-Highlight" d="M 6.8007812 6 C 5.2507813 6 4 7.2507812 4 8.8007812 L 4 13 L 4 55.199219 C 4 56.749219 5.2503813 58 6.8007812 58 L 57.199219 58 C 58.749219 58 60 56.749219 60 55.199219 L 60 13 L 60 8.8007812 C 60 7.2507812 58.749219 6 57.199219 6 L 6.8007812 6 z"/>
 <path style="opacity:0.65;fill:currentColor" class="ColorScheme-Text" d="M 6.8,6 C 5.25,6 4,7.25 4,8.8 V 13 H 60 V 8.8 C 60,7.25 58.75,6 57.2,6 Z"/>
 <path style="opacity:0.65;fill:currentColor" class="ColorScheme-Text" d="M 20.8,51 C 19.25,51 18,52.25 18,53.8 V 58 H 44 V 53.8 C 44,52.25 42.75,51 41.2,51 Z"/>
 <path style="opacity:0.1;fill:#ffffff" d="M 6.8,6 C 5.25,6 4,7.25 4,8.8 V 9.8 C 4,8.25 5.25,7 6.8,7 H 57.2 C 58.75,7 60,8.25 60,9.8 V 8.8 C 60,7.25 58.75,6 57.2,6 Z"/>
</svg>
