<svg xmlns="http://www.w3.org/2000/svg" width="64" height="64" version="1">
 <defs>
  <style id="current-color-scheme" type="text/css">
   .ColorScheme-Text { color:#1d344f; } .ColorScheme-Highlight { color:#5294e2; } .ColorScheme-Background { color:#e4e4e4; }
  </style>
 </defs>
 <rect style="opacity:0.2" width="46" height="52" x="10" y="9" rx="3" ry="3"/>
 <rect style="fill:currentColor" class="ColorScheme-Highlight" width="46" height="52" x="10" y="8" rx="3" ry="3"/>
 <rect style="fill:currentColor" class="ColorScheme-Highlight" width="18" height="6" x="24" y="2"/>
 <rect style="opacity:0.2" width="54" height="12" x="6" y="5" rx="3" ry="3"/>
 <rect style="fill:#ffffff;opacity:0.1" width="18" height="6" x="24" y="2"/>
 <rect style="fill:currentColor" class="ColorScheme-Highlight" width="54" height="12" x="6" y="4" rx="3" ry="3"/>
 <path style="opacity:0.45;fill:currentColor" class="ColorScheme-Text;fill-opacity:1" d="m 21,22 a 3,3 0 0 0 -3,3 v 24 a 3,3 0 0 0 3,3 3,3 0 0 0 3,-3 V 25 a 3,3 0 0 0 -3,-3 z m 12,0 a 3,3 0 0 0 -3,3 v 24 a 3,3 0 0 0 3,3 3,3 0 0 0 3,-3 V 25 a 3,3 0 0 0 -3,-3 z m 12,0 a 3,3 0 0 0 -3,3 v 24 a 3,3 0 0 0 3,3 3,3 0 0 0 3,-3 V 25 a 3,3 0 0 0 -3,-3 z"/>
 <path style="fill:#ffffff;opacity:0.2" d="M 9 4 C 7.338 4 6 5.338 6 7 L 6 8 C 6 6.338 7.338 5 9 5 L 57 5 C 58.662 5 60 6.338 60 8 L 60 7 C 60 5.338 58.662 4 57 4 L 9 4 z"/>
 <rect style="fill:#ffffff;opacity:0.1" width="54" height="12" x="6" y="4" rx="3" ry="3"/>
</svg>
