<svg xmlns="http://www.w3.org/2000/svg" width="48" height="48" version="1">
 <defs>
  <style id="current-color-scheme" type="text/css">
   .ColorScheme-Text { color:#1d344f; } .ColorScheme-Highlight { color:#5294e2; } .ColorScheme-Background { color:#e4e4e4; }
  </style>
 </defs>
 <rect style="opacity:0.2" width="40" height="26" x="4" y="17" rx="2" ry="2"/>
 <path style="fill:currentColor" class="ColorScheme-Highlight" d="M 4,34 C 4,35.108 4.892,36 6,36 H 42 C 43.108,36 44,35.108 44,34 V 12 C 44,10.892 43.108,10 42,10 H 24 C 21,10 20,6 17,6 H 6 C 4.892,6 4,6.892 4,8"/>
 <path style="opacity:0.25" d="M 4,34 C 4,35.108 4.892,36 6,36 H 42 C 43.108,36 44,35.108 44,34 V 12 C 44,10.892 43.108,10 42,10 H 24 C 21,10 20,6 17,6 H 6 C 4.892,6 4,6.892 4,8"/>
 <rect style="opacity:0.2" width="40" height="26" x="4" y="15" rx="2" ry="2"/>
 <rect style="fill:currentColor" class="ColorScheme-Background" width="36" height="16" x="6" y="13" rx="2" ry="2"/>
 <rect style="fill:currentColor" class="ColorScheme-Highlight" width="40" height="26" x="4" y="16" rx="2" ry="2"/>
 <path style="opacity:0.65;fill:currentColor" class="ColorScheme-Text" d="M 24 21 C 19.581722 21.000001 16 24.581722 16 29 C 16 33.418278 19.581722 36.999999 24 37 C 28.418278 37 32 33.418278 32 29 C 32 24.581722 28.418278 21 24 21 z M 24 22 C 27.865993 22 31 25.134006 31 29 C 31 32.865993 27.865993 36 24 36 C 20.134006 35.999999 17 32.865993 17 29 C 17 25.134006 20.134006 22.000001 24 22 z"/>
 <path style="opacity:0.1;fill:#ffffff" d="M 6,6 C 4.892,6 4,6.892 4,8 V 9 C 4,7.892 4.892,7 6,7 H 17 C 20,7 21,11 24,11 H 42 C 43.108,11 44,11.892 44,13 V 12 C 44,10.892 43.108,10 42,10 H 24 C 21,10 20,6 17,6 Z"/>
 <path fill="none" stroke-width="1.143" style="stroke:#1d344f" d="m 17,31 9,-2 5,-3"/>
 <path fill="none" stroke-width="1.143" style="stroke:#1d344f" d="M 30,34 26,29"/>
 <circle style="opacity:0.65;fill:currentColor" class="ColorScheme-Text" cx="30" cy="34" r="2"/>
 <circle style="opacity:0.65;fill:currentColor" class="ColorScheme-Text" cx="31" cy="26" r="2"/>
 <circle style="opacity:0.65;fill:currentColor" class="ColorScheme-Text" cx="26" cy="29" r="2"/>
 <circle style="opacity:0.65;fill:currentColor" class="ColorScheme-Text" cx="17" cy="31" r="2"/>
</svg>
