<svg xmlns="http://www.w3.org/2000/svg" width="48" height="48" version="1">
 <defs>
  <style id="current-color-scheme" type="text/css">
   .ColorScheme-Text { color:#1d344f; } .ColorScheme-Highlight { color:#5294e2; } .ColorScheme-Background { color:#e4e4e4; }
  </style>
 </defs>
 <rect style="opacity:0.2" width="30" height="35" x="9" y="10" rx="2" ry="2"/>
 <rect style="fill:currentColor" class="ColorScheme-Highlight" width="30" height="35" x="9" y="9" rx="2" ry="2"/>
 <rect style="fill:currentColor" class="ColorScheme-Highlight" width="12" height="4" x="18" y="4"/>
 <rect style="opacity:0.2" width="36" height="8" x="6" y="7" rx="2" ry="2"/>
 <rect style="fill:#ffffff;opacity:0.1" width="12" height="4" x="18" y="4"/>
 <rect style="fill:currentColor" class="ColorScheme-Highlight" width="36" height="8" x="6" y="6" rx="2" ry="2"/>
 <path style="opacity:0.2;fill:#ffffff" d="M 8,6 C 6.892,6 6,6.892 6,8 V 9 C 6,7.892 6.892,7 8,7 h 32 c 1.108,0 2,0.892 2,2 V 8 C 42,6.892 41.108,6 40,6 Z"/>
 <path style="opacity:0.45;fill:currentColor" class="ColorScheme-Text;fill-opacity:1" d="m 16,19 a 2,2 0 0 0 -2,2 v 16 a 2,2 0 0 0 2,2 2,2 0 0 0 2,-2 V 21 a 2,2 0 0 0 -2,-2 z m 8,0 a 2,2 0 0 0 -2,2 v 16 a 2,2 0 0 0 2,2 2,2 0 0 0 2,-2 V 21 a 2,2 0 0 0 -2,-2 z m 8,0 a 2,2 0 0 0 -2,2 v 16 a 2,2 0 0 0 2,2 2,2 0 0 0 2,-2 V 21 a 2,2 0 0 0 -2,-2 z"/>
 <rect style="fill:#ffffff;opacity:0.1" width="36" height="8" x="6" y="6" rx="2" ry="2"/>
</svg>
