<svg xmlns="http://www.w3.org/2000/svg" width="32" height="32" version="1">
 <defs>
  <style id="current-color-scheme" type="text/css">
   .ColorScheme-Text { color:#1d344f; } .ColorScheme-Highlight { color:#5294e2; } .ColorScheme-Background { color:#e4e4e4; }
  </style>
 </defs>
 <path style="opacity:0.2" d="M 6.5,5 H 26.5 C 28,5 30,14 30,18 30,22 28.5,31 26.5,31 H 6.5 C 4.5,31 3,22 3,18 3,14 5,5 6.5,5 Z"/>
 <path style="fill:currentColor" class="ColorScheme-Highlight" d="M 6.5,4 H 26.5 C 28,4 30,13 30,17 30,21 28.5,30 26.5,30 H 6.5 C 4.5,30 3,21 3,17 3,13 5,4 6.5,4 Z"/>
 <rect style="fill:currentColor" class="ColorScheme-Highlight" width="9" height="3" x="12" y="1"/>
 <rect style="opacity:0.2" width="27" height="6" x="3" y="3" rx="1.5" ry="1.5"/>
 <rect style="fill:#ffffff;opacity:0.1" width="9" height="3" x="12" y="1"/>
 <rect style="fill:currentColor" class="ColorScheme-Highlight" width="27" height="6" x="3" y="2" rx="1.5" ry="1.5"/>
 <path style="opacity:0.45;fill:currentColor" class="ColorScheme-Text;fill-opacity:1" d="M 16.5,11 A 1.5,1.5 0 0 0 15,12.5 v 12 A 1.5,1.5 0 0 0 16.5,26 1.5,1.5 0 0 0 18,24.5 v -12 A 1.5,1.5 0 0 0 16.5,11 Z m -5.558594,0.06641 A 1.5,1.5 0 0 0 9.0664063,12.058594 C 9.0664063,12.058594 8,15.41667 8,18.75 c 0,3.33333 1.0898438,6.261719 1.0898438,6.261719 a 1.5,1.5 0 0 0 1.9218752,0.898437 1.5,1.5 0 0 0 0.898437,-1.921875 c 0,0 -0.910156,-2.571617 -0.910156,-5.238281 0,-2.666664 0.933594,-5.808594 0.933594,-5.808594 a 1.5,1.5 0 0 0 -0.992188,-1.875 z m 11.117188,0 a 1.5,1.5 0 0 0 -0.992188,1.875 c 0,0 0.933594,3.14193 0.933594,5.808594 0,2.666664 -0.910156,5.238281 -0.910156,5.238281 a 1.5,1.5 0 0 0 0.898437,1.921875 1.5,1.5 0 0 0 1.921875,-0.898437 c 0,0 1.089844,-2.928389 1.089844,-6.261719 0,-3.33333 -1.066406,-6.691406 -1.066406,-6.691406 a 1.5,1.5 0 0 0 -1.875,-0.992188 z"/>
 <path style="fill:#ffffff;opacity:0.2" d="M 4.5 2 C 3.669 2 3 2.669 3 3.5 L 3 4.5 C 3 3.669 3.669 3 4.5 3 L 28.5 3 C 29.331 3 30 3.669 30 4.5 L 30 3.5 C 30 2.669 29.331 2 28.5 2 L 4.5 2 z"/>
 <rect style="fill:#ffffff;opacity:0.1" width="27" height="6" x="3" y="2" rx="1.5" ry="1.5"/>
</svg>
