<svg xmlns="http://www.w3.org/2000/svg" width="32" height="32" version="1">
 <defs>
  <style id="current-color-scheme" type="text/css">
   .ColorScheme-Text { color:#1d344f; } .ColorScheme-Highlight { color:#5294e2; } .ColorScheme-Background { color:#e4e4e4; }
  </style>
 </defs>
 <rect style="opacity:0.2" width="23" height="26" x="5" y="5" rx="1.5" ry="1.5"/>
 <rect style="fill:currentColor" class="ColorScheme-Highlight" width="23" height="26" x="5" y="4" rx="1.5" ry="1.5"/>
 <rect style="fill:currentColor" class="ColorScheme-Highlight" width="9" height="3" x="12" y="1"/>
 <rect style="opacity:0.2" width="27" height="6" x="3" y="3" rx="1.5" ry="1.5"/>
 <rect style="fill:#ffffff;opacity:0.1" width="9" height="3" x="12" y="1"/>
 <rect style="fill:currentColor" class="ColorScheme-Highlight" width="27" height="6" x="3" y="2" rx="1.5" ry="1.5"/>
 <path style="opacity:0.45;fill:currentColor" class="ColorScheme-Text;fill-opacity:1" d="M 10.5,11 A 1.5,1.5 0 0 0 9,12.5 v 12 A 1.5,1.5 0 0 0 10.5,26 1.5,1.5 0 0 0 12,24.5 v -12 A 1.5,1.5 0 0 0 10.5,11 Z m 6,0 A 1.5,1.5 0 0 0 15,12.5 v 12 A 1.5,1.5 0 0 0 16.5,26 1.5,1.5 0 0 0 18,24.5 v -12 A 1.5,1.5 0 0 0 16.5,11 Z m 6,0 A 1.5,1.5 0 0 0 21,12.5 v 12 A 1.5,1.5 0 0 0 22.5,26 1.5,1.5 0 0 0 24,24.5 v -12 A 1.5,1.5 0 0 0 22.5,11 Z"/>
 <path style="fill:#ffffff;opacity:0.2" d="M 4.5 2 C 3.669 2 3 2.669 3 3.5 L 3 4.5 C 3 3.669 3.669 3 4.5 3 L 28.5 3 C 29.331 3 30 3.669 30 4.5 L 30 3.5 C 30 2.669 29.331 2 28.5 2 L 4.5 2 z"/>
 <rect style="fill:#ffffff;opacity:0.1" width="27" height="6" x="3" y="2" rx="1.5" ry="1.5"/>
</svg>
