<svg xmlns="http://www.w3.org/2000/svg" width="22" height="22" version="1">
 <defs>
  <style id="current-color-scheme" type="text/css">
   .ColorScheme-Text { color:#1d344f; } .ColorScheme-Highlight { color:#5294e2; } .ColorScheme-Background { color:#e4e4e4; }
  </style>
 </defs>
 <path style="opacity:0.2" d="m 5,3.5 h 12 c 1,0 3,5.5 3,9.25 0,3.75 -1.5,8.75 -3,8.75 H 5 C 3.5,21.5 2,16.5 2,12.75 2,9 4,3.5 5,3.5 Z"/>
 <path style="fill:currentColor" class="ColorScheme-Highlight" d="m 5,3 h 12 c 1,0 3,5.5 3,9.25 C 20,16 18.5,21 17,21 H 5 C 3.5,21 2,16 2,12.25 2,8.5 4,3 5,3 Z"/>
 <rect style="fill:currentColor" class="ColorScheme-Highlight" width="6" height="2" x="8" y="1"/>
 <rect style="opacity:0.2" width="18" height="4" x="2" y="2.5" rx="1" ry="1"/>
 <rect style="fill:#ffffff;opacity:0.1" width="6" height="2" x="8" y="1"/>
 <rect style="fill:currentColor" class="ColorScheme-Highlight" width="18" height="4" x="2" y="2" rx="1" ry="1"/>
 <path style="opacity:0.45;fill:currentColor" class="ColorScheme-Text;fill-opacity:1" d="m 11,9 a 1,1 0 0 0 -1,1 v 7 a 1,1 0 0 0 1,1 1,1 0 0 0 1,-1 V 10 A 1,1 0 0 0 11,9 Z M 6.8046875,9.0195313 A 1,1 0 0 0 6.1679687,9.4453125 C 6.1679687,9.4453125 5,11.166636 5,13.5 c 0,2.333364 1.1679687,4.054687 1.1679687,4.054687 a 1,1 0 0 0 1.3867188,0.277344 1,1 0 0 0 0.2773437,-1.386719 C 7.8320312,16.445312 7,15.166632 7,13.5 7,11.833368 7.8320313,10.554687 7.8320312,10.554688 a 1,1 0 0 0 -0.2773437,-1.3867192 1,1 0 0 0 -0.75,-0.1484375 z m 7.6406255,0.1484375 a 1,1 0 0 0 -0.277344,1.3867192 c 0,0 0.832031,1.278647 0.832031,2.945312 0,1.666665 -0.832031,2.945313 -0.832031,2.945312 a 1,1 0 0 0 0.277344,1.386719 1,1 0 0 0 1.386718,-0.277344 C 15.832031,17.554687 17,15.833331 17,13.5 17,11.166669 15.832031,9.4453125 15.832031,9.4453125 A 1,1 0 0 0 14.445313,9.1679688 Z"/>
 <path style="opacity:0.2;fill:#ffffff" d="M 3,2 C 2.446,2 2,2.446 2,3 v 0.5 c 0,-0.554 0.446,-1 1,-1 h 16 c 0.554,0 1,0.446 1,1 V 3 C 20,2.446 19.554,2 19,2 Z"/>
 <rect style="fill:#ffffff;opacity:0.1" width="18" height="4" x="2" y="2" rx="1" ry="1"/>
</svg>
